<svg width="542" height="527" xmlns="http://www.w3.org/2000/svg" xmlns:xlink="http://www.w3.org/1999/xlink" xml:space="preserve" overflow="hidden"><defs><clipPath id="clip0"><rect x="361" y="89" width="542" height="527"/></clipPath></defs><g clip-path="url(#clip0)" transform="translate(-361 -89)"><path d="M485.688 301.67 1027.69 301.67 1027.69 829.592 485.688 829.592Z" fill="#A6A6A6" transform="matrix(1 0 0 1.00025 -124.688 -212.744)"/><path d="M670.712 505.464C670.712 457.703 709.206 418.986 756.688 418.986 804.171 418.986 842.664 457.703 842.664 505.464 842.664 553.225 804.171 591.943 756.688 591.943 709.206 591.943 670.712 553.225 670.712 505.464Z" fill="#FFFFFF" fill-rule="evenodd" transform="matrix(1 0 0 1.00025 -124.688 -212.744)"/><path d="M565.798 824.065C565.798 760.154 651.339 637.864 756.856 637.864 862.373 637.864 947.913 721.229 947.913 824.065 947.913 926.901 862.373 1021.32 756.856 1021.32 651.339 1021.32 565.798 887.972 565.798 824.065Z" fill="#FFFFFF" fill-rule="evenodd" transform="matrix(1 0 0 1.00025 -124.688 -212.744)"/></g></svg>